<?xml version="1.0" standalone="no"?>
<!DOCTYPE svg PUBLIC "-//W3C//DTD SVG 20010904//EN"
 "http://www.w3.org/TR/2001/REC-SVG-20010904/DTD/svg10.dtd">
<svg version="1.0" xmlns="http://www.w3.org/2000/svg"
 width="512.000000pt" height="512.000000pt" viewBox="0 0 512.000000 512.000000"
 preserveAspectRatio="xMidYMid meet">
<metadata>
Created by potrace 1.14, written by Peter Selinger 2001-2017
</metadata>
<g transform="translate(0.000000,512.000000) scale(0.100000,-0.100000)"
fill="#000000" stroke="none">
<path d="M2155 5106 c-282 -54 -518 -230 -651 -486 -82 -160 -113 -342 -93
-550 l4 -44 -45 -3 c-181 -12 -333 -87 -434 -215 -83 -106 -134 -273 -122
-399 7 -67 30 -154 51 -196 13 -25 12 -28 -16 -45 -16 -10 -32 -18 -35 -18 -3
0 -26 -14 -52 -32 -117 -80 -222 -219 -274 -361 -26 -72 -30 -98 -34 -217 -5
-155 11 -231 70 -348 41 -80 66 -115 140 -193 35 -37 56 -68 57 -84 1 -14 2
-28 3 -32 1 -5 6 -35 10 -68 4 -32 9 -66 11 -75 1 -8 6 -37 9 -65 4 -27 18
-131 32 -230 25 -182 27 -195 39 -275 4 -25 8 -56 10 -70 4 -26 16 -104 20
-130 1 -8 6 -42 10 -75 4 -32 9 -68 11 -79 2 -11 6 -40 9 -65 3 -25 7 -57 9
-71 7 -39 16 -101 22 -145 23 -184 45 -310 58 -330 14 -21 26 -26 91 -39 11
-3 43 -10 70 -16 56 -13 241 -48 295 -56 19 -3 58 -9 85 -14 55 -10 83 -13
265 -34 291 -34 405 -40 770 -41 371 0 516 7 795 41 195 23 242 30 385 55 194
34 364 71 392 85 28 15 43 50 52 124 4 40 20 154 31 220 2 14 7 50 10 80 4 30
9 62 10 70 2 8 6 38 9 65 10 75 23 163 31 205 2 14 7 48 10 75 10 80 15 117
20 144 2 14 6 44 9 66 3 22 17 121 31 220 14 99 28 198 31 220 3 22 7 51 9 65
2 14 7 45 10 70 4 25 9 61 12 80 3 19 6 40 7 47 1 7 28 39 60 71 67 68 85 94
131 183 68 133 92 280 70 429 -11 68 -8 58 -24 105 -56 179 -174 329 -328 419
-71 42 -72 43 -58 69 24 47 47 139 51 210 16 266 -171 516 -436 583 -64 16
-167 21 -223 11 -22 -5 -39 3 -80 34 -112 85 -362 189 -675 280 -130 38 -202
104 -235 216 -33 111 3 239 88 309 47 40 61 79 43 119 -13 30 -108 76 -228
111 -105 31 -296 40 -405 20z m300 -160 c53 -11 115 -29 115 -32 0 -3 -13 -28
-30 -57 -101 -179 -66 -408 85 -558 66 -66 123 -94 307 -149 292 -88 454 -160
566 -251 34 -27 70 -52 80 -53 9 -2 46 2 82 8 223 41 435 -107 478 -334 16
-83 6 -142 -38 -231 -79 -156 -243 -301 -465 -409 -102 -50 -265 -111 -332
-125 -10 -2 -39 -8 -66 -14 -26 -6 -64 -14 -85 -17 -20 -3 -66 -10 -102 -16
-154 -24 -520 -16 -740 17 -113 17 -119 18 -222 39 -42 9 -87 16 -98 16 -31 0
-70 -44 -70 -78 0 -66 33 -80 277 -122 212 -36 315 -45 533 -45 198 0 295 7
425 31 50 8 103 18 118 21 44 7 246 68 302 91 127 52 223 102 335 177 75 50
103 73 192 153 l47 44 63 -33 c38 -20 91 -62 133 -104 109 -110 165 -242 166
-390 0 -102 -16 -170 -62 -262 -107 -213 -335 -338 -569 -311 -88 10 -152 32
-233 79 -37 22 -77 42 -88 44 -28 6 -65 -15 -114 -62 -165 -160 -426 -287
-672 -327 -101 -16 -324 -19 -398 -5 -176 33 -236 51 -360 106 -101 45 -252
144 -330 217 -33 30 -75 60 -93 66 -30 11 -38 8 -110 -33 -94 -54 -159 -76
-255 -86 -166 -15 -329 44 -452 166 -73 72 -138 191 -155 282 -51 277 92 544
347 645 120 48 139 89 82 173 -114 166 -94 382 49 527 115 117 306 151 435 77
118 -68 162 -91 245 -129 155 -72 447 -158 597 -176 101 -13 141 -18 165 -22
35 -6 374 -5 435 1 107 10 221 27 252 37 62 19 81 76 40 124 -27 31 -52 33
-177 15 -128 -18 -162 -20 -325 -20 -151 0 -212 3 -295 15 -25 3 -58 8 -75 10
-179 23 -434 103 -620 197 -159 79 -179 96 -194 160 -26 119 -16 307 22 412
84 228 253 398 471 470 43 15 99 29 125 32 25 3 48 7 50 9 4 4 180 -4 206 -10z
m-871 -3071 c20 -15 20 -17 30 -185 4 -52 8 -122 11 -155 3 -33 7 -103 10
-155 7 -113 13 -199 20 -295 2 -38 7 -110 10 -160 3 -49 8 -117 10 -150 3 -33
7 -103 10 -155 3 -52 8 -117 10 -145 13 -171 16 -267 8 -262 -5 3 -34 9 -64
12 -29 4 -76 11 -103 16 -27 5 -50 9 -52 9 -1 0 -2 8 -2 18 1 15 -8 120 -17
197 -2 17 -6 59 -10 95 -8 86 -15 157 -20 200 -2 19 -7 64 -10 100 -3 36 -7
81 -10 100 -2 19 -7 69 -10 110 -3 41 -8 91 -10 110 -2 19 -9 82 -15 140 -6
58 -12 125 -15 150 -5 45 -9 88 -20 210 -3 36 -8 77 -11 91 -5 26 -2 28 73 53
43 14 92 35 108 45 37 24 45 24 69 6z m2011 -1 c14 -9 62 -29 107 -45 72 -25
83 -32 82 -51 -2 -34 -15 -179 -19 -197 -1 -9 -6 -56 -10 -105 -4 -50 -8 -97
-10 -105 -1 -9 -6 -50 -9 -91 -4 -41 -9 -91 -11 -110 -3 -19 -7 -62 -10 -95
-7 -90 -16 -187 -20 -215 -2 -14 -7 -56 -10 -95 -3 -38 -8 -86 -10 -105 -2
-19 -7 -62 -10 -95 -3 -33 -8 -78 -10 -100 -3 -22 -7 -69 -10 -105 -3 -36 -8
-74 -10 -85 -2 -11 -4 -22 -4 -25 -1 -3 -13 -7 -28 -8 -16 -1 -66 -8 -112 -16
l-83 -14 6 107 c4 58 9 129 11 156 2 28 7 95 10 150 3 55 8 123 10 150 2 28 7
95 10 150 3 55 8 127 10 160 3 33 7 94 10 135 12 199 16 268 20 305 2 22 6 96
10 165 8 151 10 165 27 184 17 20 33 20 63 0z m-2610 -63 c74 -17 92 -20 140
-22 49 -3 48 -1 60 -134 5 -58 10 -108 20 -190 5 -48 15 -147 30 -315 4 -41 8
-82 10 -90 2 -8 6 -51 10 -95 3 -44 8 -91 10 -105 2 -14 6 -59 10 -100 3 -41
13 -138 21 -215 27 -267 26 -265 14 -265 -20 0 -165 30 -185 39 -12 5 -21 19
-23 36 -1 15 -9 75 -18 134 -9 58 -18 120 -20 136 -4 29 -18 134 -28 205 -3
19 -10 71 -16 115 -6 44 -13 91 -15 105 -3 14 -9 61 -15 105 -6 44 -13 92 -15
106 -5 26 -8 51 -20 144 -3 28 -8 57 -10 65 -2 8 -7 42 -10 75 -3 33 -8 67
-10 75 -2 8 -7 38 -11 65 -3 28 -10 70 -14 95 -10 52 -5 63 18 51 9 -4 40 -14
67 -20z m3240 7 c-14 -84 -44 -293 -50 -348 -3 -30 -8 -66 -10 -80 -6 -33 -11
-68 -25 -165 -6 -44 -13 -96 -16 -115 -3 -19 -9 -69 -15 -110 -6 -41 -12 -86
-14 -100 -7 -35 -37 -250 -40 -280 -1 -14 -10 -79 -20 -145 -10 -66 -18 -126
-20 -134 -2 -17 -21 -27 -65 -35 -19 -3 -46 -8 -60 -11 -14 -3 -40 -8 -58 -11
l-34 -7 7 69 c6 76 15 155 20 194 2 14 6 61 10 105 5 76 10 119 20 210 2 22 7
67 10 100 3 33 8 78 10 100 11 100 14 125 20 195 3 41 8 91 10 110 2 19 7 64
10 100 3 36 8 76 10 90 2 14 6 59 10 100 3 41 8 84 10 95 2 11 4 25 4 31 1 6
23 12 50 13 43 1 199 36 210 47 11 11 19 2 16 -18z m-2387 -121 c31 -18 92
-48 135 -67 l77 -34 1 -40 c1 -23 2 -75 4 -116 2 -41 6 -172 10 -290 4 -118 8
-258 10 -310 2 -52 7 -187 10 -300 4 -113 8 -240 10 -284 l3 -78 -96 7 c-137
9 -132 6 -133 73 0 31 -2 71 -3 87 -2 17 -6 80 -10 140 -7 112 -10 160 -21
295 -3 41 -7 113 -10 159 -2 46 -7 113 -9 150 -3 36 -8 104 -11 151 -3 47 -8
114 -10 150 -5 71 -16 231 -20 298 -1 23 0 42 2 42 3 0 30 -15 61 -33z m1507
-9 c-2 -24 -6 -90 -10 -148 -4 -58 -8 -125 -10 -150 -2 -25 -6 -90 -10 -145
-4 -55 -8 -122 -10 -150 -2 -27 -7 -95 -10 -150 -3 -55 -8 -125 -10 -155 -2
-30 -7 -100 -10 -155 -4 -55 -8 -120 -10 -145 -2 -25 -7 -93 -10 -153 -4 -59
-8 -115 -9 -124 -3 -19 -8 -20 -133 -28 l-92 -7 4 74 c2 40 6 170 10 288 3
118 8 258 10 310 2 52 7 194 11 315 4 121 8 245 9 275 2 30 3 78 4 106 l1 51
74 31 c41 17 100 47 133 66 32 20 61 35 65 36 3 0 5 -19 3 -42z m-1004 -163
c35 -5 73 -9 84 -11 11 -1 28 -3 38 -3 16 -1 17 -40 17 -676 l0 -674 -105 3
c-58 2 -109 6 -112 10 -3 3 -7 45 -9 93 -3 119 -14 475 -19 598 -2 55 -6 197
-10 315 -3 118 -8 246 -11 283 -2 38 -2 73 1 77 3 5 18 5 33 0 16 -4 58 -11
93 -15z m564 -42 c-2 -38 -6 -176 -10 -308 -3 -132 -8 -280 -10 -330 -3 -49
-7 -182 -10 -295 -7 -249 -13 -372 -20 -378 -3 -3 -52 -7 -110 -8 l-105 -2 0
674 0 674 23 1 c12 0 29 2 37 3 8 2 40 6 70 10 30 3 71 10 90 15 19 5 38 9 41
10 3 1 5 -29 4 -66z"/>
</g>
</svg>
