<svg data-v-423bf9ae="" xmlns="http://www.w3.org/2000/svg" viewBox="0 0 605.7370166778495 60" class="font"><!----><!----><!----><g data-v-423bf9ae="" id="63a135f5-0c17-4a25-bdc5-8c1421a628fb" fill="white" transform="matrix(4.593440274637301,0,0,4.593440274637301,-3.2154060513219633,-15.056812978059618)"><path d="M2.34 3.72L4.17 3.72L4.17 3.72Q4.80 3.72 5.30 3.89L5.30 3.89L5.30 3.89Q5.80 4.06 6.20 4.27L6.20 4.27L6.20 4.27Q7.03 4.69 7.56 5.44L7.56 5.44L7.56 5.44Q8.09 6.19 8.33 7.10L8.33 7.10L8.33 7.10Q8.57 8.01 8.52 8.98L8.52 8.98L8.52 8.98Q8.47 9.95 8.13 10.82L8.13 10.82L8.13 10.82Q7.78 11.68 7.15 12.34L7.15 12.34L7.15 12.34Q6.52 13.01 5.61 13.29L5.61 13.29L5.61 13.29Q5.25 13.40 4.63 13.45L4.63 13.45L4.63 13.45Q4.00 13.50 3.30 13.52L3.30 13.52L3.30 13.52Q2.60 13.54 1.91 13.53L1.91 13.53L1.91 13.53Q1.22 13.52 0.70 13.52L0.70 13.52L0.70 5.39L0.70 5.39Q0.70 5.04 0.78 4.73L0.78 4.73L0.78 4.73Q0.87 4.42 1.06 4.20L1.06 4.20L1.06 4.20Q1.25 3.98 1.56 3.85L1.56 3.85L1.56 3.85Q1.88 3.72 2.34 3.72L2.34 3.72ZM2.56 5.59L2.56 11.70L2.56 11.70Q3.18 11.70 3.72 11.70L3.72 11.70L3.72 11.70Q4.27 11.70 4.73 11.60L4.73 11.60L4.73 11.60Q5.18 11.49 5.56 11.23L5.56 11.23L5.56 11.23Q5.94 10.96 6.22 10.43L6.22 10.43L6.22 10.43Q6.44 10.00 6.55 9.44L6.55 9.44L6.55 9.44Q6.66 8.88 6.63 8.30L6.63 8.30L6.63 8.30Q6.59 7.73 6.41 7.20L6.41 7.20L6.41 7.20Q6.22 6.68 5.84 6.30L5.84 6.30L5.84 6.30Q5.52 5.98 5.07 5.78L5.07 5.78L5.07 5.78Q4.62 5.59 4.13 5.59L4.13 5.59L2.56 5.59ZM14.88 10.72L14.88 10.72L14.88 10.72Q14.13 10.92 13.50 10.86L13.50 10.86L13.50 10.86Q12.88 10.81 12.48 10.56L12.48 10.56L12.48 10.56Q12.08 10.32 11.95 9.91L11.95 9.91L11.95 9.91Q11.82 9.49 12.03 8.97L12.03 8.97L12.03 8.97Q12.46 9.34 13.03 9.37L13.03 9.37L13.03 9.37Q13.61 9.41 14.14 9.35L14.14 9.35L14.14 9.35Q14.59 9.31 14.82 9.16L14.82 9.16L14.82 9.16Q15.05 9.00 15.11 8.80L15.11 8.80L15.11 8.80Q15.16 8.60 15.06 8.37L15.06 8.37L15.06 8.37Q14.97 8.15 14.75 7.97L14.75 7.97L14.75 7.97Q14.53 7.78 14.22 7.67L14.22 7.67L14.22 7.67Q13.90 7.56 13.52 7.57L13.52 7.57L13.52 7.57Q13.12 7.60 12.75 7.77L12.75 7.77L12.75 7.77Q12.39 7.94 12.11 8.23L12.11 8.23L12.11 8.23Q11.83 8.53 11.66 8.92L11.66 8.92L11.66 8.92Q11.49 9.31 11.48 9.79L11.48 9.79L11.48 9.79Q11.47 10.18 11.57 10.56L11.57 10.56L11.57 10.56Q11.68 10.93 11.89 11.25L11.89 11.25L11.89 11.25Q12.10 11.56 12.39 11.78L12.39 11.78L12.39 11.78Q12.68 12.00 13.06 12.05L13.06 12.05L13.06 12.05Q13.59 12.15 14.15 11.98L14.15 11.98L14.15 11.98Q14.71 11.82 15.15 11.37L15.15 11.37L16.62 12.08L16.62 12.08Q16.04 12.94 15.26 13.31L15.26 13.31L15.26 13.31Q14.48 13.68 13.47 13.68L13.47 13.68L13.47 13.68Q12.53 13.68 11.82 13.35L11.82 13.35L11.82 13.35Q11.12 13.02 10.65 12.47L10.65 12.47L10.65 12.47Q10.18 11.93 9.95 11.24L9.95 11.24L9.95 11.24Q9.72 10.54 9.73 9.82L9.73 9.82L9.73 9.82Q9.74 9.10 10.01 8.41L10.01 8.41L10.01 8.41Q10.28 7.71 10.78 7.18L10.78 7.18L10.78 7.18Q11.34 6.58 12.09 6.33L12.09 6.33L12.09 6.33Q12.84 6.08 13.62 6.08L13.62 6.08L13.62 6.08Q14.49 6.08 15.12 6.37L15.12 6.37L15.12 6.37Q15.75 6.66 16.14 7.12L16.14 7.12L16.14 7.12Q16.53 7.57 16.66 8.13L16.66 8.13L16.66 8.13Q16.79 8.68 16.64 9.20L16.64 9.20L16.64 9.20Q16.49 9.72 16.06 10.13L16.06 10.13L16.06 10.13Q15.62 10.54 14.88 10.72ZM22.86 10.72L22.86 10.72L22.86 10.72Q22.11 10.92 21.48 10.86L21.48 10.86L21.48 10.86Q20.86 10.81 20.46 10.56L20.46 10.56L20.46 10.56Q20.06 10.32 19.93 9.91L19.93 9.91L19.93 9.91Q19.80 9.49 20.01 8.97L20.01 8.97L20.01 8.97Q20.44 9.34 21.01 9.37L21.01 9.37L21.01 9.37Q21.59 9.41 22.12 9.35L22.12 9.35L22.12 9.35Q22.57 9.31 22.80 9.16L22.80 9.16L22.80 9.16Q23.03 9.00 23.09 8.80L23.09 8.80L23.09 8.80Q23.14 8.60 23.04 8.37L23.04 8.37L23.04 8.37Q22.95 8.15 22.73 7.97L22.73 7.97L22.73 7.97Q22.51 7.78 22.20 7.67L22.20 7.67L22.20 7.67Q21.88 7.56 21.50 7.57L21.50 7.57L21.50 7.57Q21.10 7.60 20.73 7.77L20.73 7.77L20.73 7.77Q20.37 7.94 20.09 8.23L20.09 8.23L20.09 8.23Q19.81 8.53 19.64 8.92L19.64 8.92L19.64 8.92Q19.47 9.31 19.46 9.79L19.46 9.79L19.46 9.79Q19.45 10.18 19.55 10.56L19.55 10.56L19.55 10.56Q19.66 10.93 19.87 11.25L19.87 11.25L19.87 11.25Q20.08 11.56 20.37 11.78L20.37 11.78L20.37 11.78Q20.66 12.00 21.04 12.05L21.04 12.05L21.04 12.05Q21.57 12.15 22.13 11.98L22.13 11.98L22.13 11.98Q22.69 11.82 23.13 11.37L23.13 11.37L24.60 12.08L24.60 12.08Q24.02 12.94 23.24 13.31L23.24 13.31L23.24 13.31Q22.46 13.68 21.45 13.68L21.45 13.68L21.45 13.68Q20.51 13.68 19.80 13.35L19.80 13.35L19.80 13.35Q19.10 13.02 18.63 12.47L18.63 12.47L18.63 12.47Q18.16 11.93 17.93 11.24L17.93 11.24L17.93 11.24Q17.70 10.54 17.71 9.82L17.71 9.82L17.71 9.82Q17.72 9.10 17.99 8.41L17.99 8.41L17.99 8.41Q18.26 7.71 18.76 7.18L18.76 7.18L18.76 7.18Q19.32 6.58 20.07 6.33L20.07 6.33L20.07 6.33Q20.82 6.08 21.60 6.08L21.60 6.08L21.60 6.08Q22.47 6.08 23.10 6.37L23.10 6.37L23.10 6.37Q23.73 6.66 24.12 7.12L24.12 7.12L24.12 7.12Q24.51 7.57 24.64 8.13L24.64 8.13L24.64 8.13Q24.77 8.68 24.62 9.20L24.62 9.20L24.62 9.20Q24.47 9.72 24.04 10.13L24.04 10.13L24.04 10.13Q23.60 10.54 22.86 10.72ZM26.19 9.21L28.73 9.21L28.73 9.21Q29.37 9.21 29.62 9.64L29.62 9.64L29.62 9.64Q29.86 10.07 29.83 10.84L29.83 10.84L27.30 10.84L27.30 10.84Q26.66 10.84 26.41 10.41L26.41 10.41L26.41 10.41Q26.17 9.98 26.19 9.21L26.19 9.21ZM33.29 3.72L33.29 3.72L33.29 13.52L31.53 13.52L31.53 5.15L31.53 5.15Q31.53 4.48 32.00 4.10L32.00 4.10L32.00 4.10Q32.48 3.71 33.29 3.72ZM34.97 13.52L34.97 7.74L34.97 7.74Q35 7.32 35.15 7.04L35.15 7.04L35.15 7.04Q35.29 6.76 35.53 6.59L35.53 6.59L35.53 6.59Q35.77 6.43 36.08 6.35L36.08 6.35L36.08 6.35Q36.40 6.27 36.78 6.27L36.78 6.27L36.78 13.52L34.97 13.52ZM35.88 3.29L35.88 3.29L35.88 3.29Q36.36 3.29 36.69 3.64L36.69 3.64L36.69 3.64Q37.04 3.98 37.04 4.47L37.04 4.47L37.04 4.47Q37.04 4.96 36.71 5.31L36.71 5.31L36.71 5.31Q36.51 5.50 36.25 5.58L36.25 5.58L36.25 5.58Q35.99 5.66 35.73 5.73L35.73 5.73L35.73 5.73Q35.48 5.81 35.26 5.92L35.26 5.92L35.26 5.92Q35.04 6.02 34.96 6.26L34.96 6.26L34.96 6.26Q34.89 6.03 34.81 5.68L34.81 5.68L34.81 5.68Q34.73 5.33 34.71 4.96L34.71 4.96L34.71 4.96Q34.69 4.58 34.75 4.22L34.75 4.22L34.75 4.22Q34.82 3.86 35.06 3.63L35.06 3.63L35.06 3.63Q35.39 3.29 35.88 3.29ZM41.96 16.34L41.96 16.34L41.96 16.34Q41.26 16.34 40.61 16.17L40.61 16.17L40.61 16.17Q39.96 16.00 39.49 15.66L39.49 15.66L39.49 15.66Q39.03 15.32 38.84 14.79L38.84 14.79L38.84 14.79Q38.64 14.27 38.85 13.54L38.85 13.54L38.85 13.54Q39.07 13.79 39.43 14.00L39.43 14.00L39.43 14.00Q39.79 14.21 40.19 14.36L40.19 14.36L40.19 14.36Q40.59 14.50 41.00 14.59L41.00 14.59L41.00 14.59Q41.41 14.67 41.76 14.66L41.76 14.66L41.76 14.66Q42.41 14.63 42.81 14.45L42.81 14.45L42.81 14.45Q43.22 14.27 43.45 13.98L43.45 13.98L43.45 13.98Q43.68 13.69 43.76 13.33L43.76 13.33L43.76 13.33Q43.85 12.96 43.85 12.57L43.85 12.57L43.85 12.57Q43.32 13.10 42.69 13.34L42.69 13.34L42.69 13.34Q42.07 13.57 41.44 13.55L41.44 13.55L41.44 13.55Q40.81 13.52 40.22 13.25L40.22 13.25L40.22 13.25Q39.62 12.98 39.16 12.49L39.16 12.49L39.16 12.49Q38.71 12.00 38.44 11.30L38.44 11.30L38.44 11.30Q38.16 10.60 38.16 9.73L38.16 9.73L38.16 9.73Q38.16 8.89 38.46 8.20L38.46 8.20L38.46 8.20Q38.75 7.52 39.25 7.04L39.25 7.04L39.25 7.04Q39.75 6.57 40.38 6.31L40.38 6.31L40.38 6.31Q41.02 6.06 41.71 6.09L41.71 6.09L41.71 6.09Q42.38 6.12 42.78 6.39L42.78 6.39L42.78 6.39Q43.19 6.66 43.38 7.02L43.38 7.02L43.38 7.02Q43.57 7.38 43.58 7.76L43.58 7.76L43.58 7.76Q43.58 8.13 43.46 8.36L43.46 8.36L43.46 8.36Q43.33 8.19 43.16 8.07L43.16 8.07L43.16 8.07Q42.98 7.95 42.78 7.88L42.78 7.88L42.78 7.88Q42.57 7.81 42.36 7.78L42.36 7.78L42.36 7.78Q42.14 7.76 41.94 7.76L41.94 7.76L41.94 7.76Q41.30 7.76 40.87 8.06L40.87 8.06L40.87 8.06Q40.43 8.37 40.21 8.83L40.21 8.83L40.21 8.83Q39.98 9.28 39.98 9.81L39.98 9.81L39.98 9.81Q39.97 10.35 40.19 10.80L40.19 10.80L40.19 10.80Q40.40 11.26 40.84 11.56L40.84 11.56L40.84 11.56Q41.29 11.87 41.94 11.87L41.94 11.87L41.94 11.87Q42.50 11.87 42.87 11.65L42.87 11.65L42.87 11.65Q43.23 11.42 43.45 11.05L43.45 11.05L43.45 11.05Q43.67 10.68 43.76 10.21L43.76 10.21L43.76 10.21Q43.85 9.74 43.85 9.25L43.85 9.25L43.85 7.04L43.85 6.27L45.67 6.27L45.67 12.71L45.67 12.71Q45.67 13.54 45.43 14.21L45.43 14.21L45.43 14.21Q45.19 14.88 44.72 15.36L44.72 15.36L44.72 15.36Q44.25 15.83 43.56 16.09L43.56 16.09L43.56 16.09Q42.87 16.34 41.96 16.34ZM48.83 3.72L48.83 3.72L48.83 7.27L48.83 7.27Q48.94 7.03 49.17 6.85L49.17 6.85L49.17 6.85Q49.39 6.66 49.66 6.55L49.66 6.55L49.66 6.55Q49.94 6.43 50.23 6.36L50.23 6.36L50.23 6.36Q50.51 6.29 50.76 6.27L50.76 6.27L50.76 6.27Q51.28 6.24 51.79 6.41L51.79 6.41L51.79 6.41Q52.29 6.58 52.71 7.01L52.71 7.01L52.71 7.01Q53.33 7.66 53.33 8.86L53.33 8.86L53.33 13.52L51.58 13.52L51.58 13.52Q51.58 13.30 51.58 12.90L51.58 12.90L51.58 12.90Q51.59 12.50 51.59 12.03L51.59 12.03L51.59 12.03Q51.59 11.56 51.59 11.05L51.59 11.05L51.59 11.05Q51.59 10.54 51.58 10.09L51.58 10.09L51.58 10.09Q51.56 9.63 51.53 9.28L51.53 9.28L51.53 9.28Q51.51 8.93 51.46 8.76L51.46 8.76L51.46 8.76Q51.35 8.34 51.06 8.12L51.06 8.12L51.06 8.12Q50.76 7.90 50.40 7.90L50.40 7.90L50.40 7.90Q49.92 7.90 49.66 8.15L49.66 8.15L49.66 8.15Q49.41 8.40 49.41 8.81L49.41 8.81L49.41 8.81Q49.25 8.76 49.08 8.60L49.08 8.60L49.08 8.60Q48.90 8.43 48.83 8.23L48.83 8.23L48.83 13.52L47.07 13.52L47.07 5.15L47.07 5.15Q47.07 4.48 47.54 4.10L47.54 4.10L47.54 4.10Q48.02 3.71 48.83 3.72ZM55.48 6.33L55.48 5.15L55.48 5.15Q55.48 4.76 55.63 4.49L55.63 4.49L55.63 4.49Q55.78 4.21 56.02 4.05L56.02 4.05L56.02 4.05Q56.27 3.88 56.59 3.80L56.59 3.80L56.59 3.80Q56.91 3.72 57.25 3.72L57.25 3.72L57.25 6.33L58.87 6.33L58.87 6.33Q58.87 6.61 58.82 6.87L58.82 6.87L58.82 6.87Q58.77 7.14 58.63 7.36L58.63 7.36L58.63 7.36Q58.49 7.57 58.25 7.71L58.25 7.71L58.25 7.71Q58.02 7.84 57.64 7.84L57.64 7.84L57.25 7.84L57.25 11.80L57.25 11.80Q57.25 12.03 57.41 12.12L57.41 12.12L57.41 12.12Q57.58 12.21 57.81 12.20L57.81 12.20L57.81 12.20Q58.03 12.19 58.25 12.10L58.25 12.10L58.25 12.10Q58.48 12.00 58.58 11.83L58.58 11.83L58.58 11.83Q58.76 12.29 58.60 12.65L58.60 12.65L58.60 12.65Q58.44 13.01 58.09 13.22L58.09 13.22L58.09 13.22Q57.75 13.44 57.30 13.50L57.30 13.50L57.30 13.50Q56.84 13.57 56.44 13.43L56.44 13.43L56.44 13.43Q56.04 13.30 55.76 12.96L55.76 12.96L55.76 12.96Q55.48 12.61 55.48 12.03L55.48 12.03L55.48 7.84L54.59 7.84L54.59 6.33L55.48 6.33ZM59.99 7.81L59.99 6.26L60.63 6.26L60.63 6.26Q60.63 5.89 60.63 5.54L60.63 5.54L60.63 5.54Q60.62 5.18 60.66 4.87L60.66 4.87L60.66 4.87Q60.69 4.55 60.77 4.28L60.77 4.28L60.77 4.28Q60.84 4.02 61.01 3.81L61.01 3.81L61.01 3.81Q61.21 3.57 61.54 3.44L61.54 3.44L61.54 3.44Q61.87 3.30 62.40 3.28L62.40 3.28L62.40 3.28Q62.97 3.26 63.45 3.43L63.45 3.43L63.45 3.43Q63.92 3.60 64.18 3.90L64.18 3.90L64.18 3.90Q64.44 4.20 64.44 4.59L64.44 4.59L64.44 4.59Q64.43 4.98 64.04 5.42L64.04 5.42L64.04 5.42Q63.94 5.14 63.68 4.97L63.68 4.97L63.68 4.97Q63.42 4.80 63.15 4.79L63.15 4.79L63.15 4.79Q62.87 4.77 62.66 4.92L62.66 4.92L62.66 4.92Q62.45 5.07 62.45 5.42L62.45 5.42L62.45 6.26L64.25 6.26L64.25 6.26Q64.25 6.96 63.85 7.39L63.85 7.39L63.85 7.39Q63.46 7.81 62.87 7.81L62.87 7.81L62.45 7.81L62.45 13.52L60.63 13.52L60.63 7.81L59.99 7.81ZM65.28 6.29L67.12 6.29L67.12 9.76L67.12 9.76Q67.12 10.01 67.12 10.30L67.12 10.30L67.12 10.30Q67.13 10.58 67.18 10.86L67.18 10.86L67.18 10.86Q67.23 11.13 67.35 11.37L67.35 11.37L67.35 11.37Q67.47 11.61 67.70 11.77L67.70 11.77L67.70 11.77Q67.86 11.89 68.06 11.94L68.06 11.94L68.06 11.94Q68.26 12.00 68.47 12.00L68.47 12.00L68.47 12.00Q68.68 12.00 68.88 11.94L68.88 11.94L68.88 11.94Q69.08 11.89 69.24 11.77L69.24 11.77L69.24 11.77Q69.48 11.62 69.60 11.39L69.60 11.39L69.60 11.39Q69.72 11.16 69.77 10.89L69.77 10.89L69.77 10.89Q69.82 10.63 69.82 10.35L69.82 10.35L69.82 10.35Q69.82 10.07 69.82 9.81L69.82 9.81L69.82 7.73L69.82 7.73Q69.80 6.97 70.31 6.60L70.31 6.60L70.31 6.60Q70.81 6.23 71.62 6.26L71.62 6.26L71.62 9.34L71.62 9.34Q71.64 10.29 71.56 10.93L71.56 10.93L71.56 10.93Q71.48 11.56 71.33 11.93L71.33 11.93L71.33 11.93Q70.92 12.87 70.18 13.27L70.18 13.27L70.18 13.27Q69.44 13.68 68.45 13.68L68.45 13.68L68.45 13.68Q67.37 13.68 66.60 13.20L66.60 13.20L66.60 13.20Q65.83 12.73 65.49 11.68L65.49 11.68L65.49 11.68Q65.39 11.35 65.34 10.80L65.34 10.80L65.34 10.80Q65.28 10.25 65.28 9.59L65.28 9.59L65.28 6.29ZM74.80 3.72L74.80 3.72L74.80 13.52L73.04 13.52L73.04 5.15L73.04 5.15Q73.04 4.48 73.51 4.10L73.51 4.10L73.51 4.10Q73.99 3.71 74.80 3.72ZM81.34 3.72L83.17 3.72L83.17 3.72Q83.80 3.72 84.30 3.89L84.30 3.89L84.30 3.89Q84.80 4.06 85.20 4.27L85.20 4.27L85.20 4.27Q86.03 4.69 86.56 5.44L86.56 5.44L86.56 5.44Q87.09 6.19 87.33 7.10L87.33 7.10L87.33 7.10Q87.57 8.01 87.52 8.98L87.52 8.98L87.52 8.98Q87.47 9.95 87.13 10.82L87.13 10.82L87.13 10.82Q86.79 11.68 86.16 12.34L86.16 12.34L86.16 12.34Q85.53 13.01 84.62 13.29L84.62 13.29L84.62 13.29Q84.25 13.40 83.63 13.45L83.63 13.45L83.63 13.45Q83.01 13.50 82.31 13.52L82.31 13.52L82.31 13.52Q81.61 13.54 80.91 13.53L80.91 13.53L80.91 13.53Q80.22 13.52 79.70 13.52L79.70 13.52L79.70 5.39L79.70 5.39Q79.70 5.04 79.79 4.73L79.79 4.73L79.79 4.73Q79.87 4.42 80.06 4.20L80.06 4.20L80.06 4.20Q80.25 3.98 80.56 3.85L80.56 3.85L80.56 3.85Q80.88 3.72 81.34 3.72L81.34 3.72ZM81.56 5.59L81.56 11.70L81.56 11.70Q82.18 11.70 82.73 11.70L82.73 11.70L82.73 11.70Q83.27 11.70 83.73 11.60L83.73 11.60L83.73 11.60Q84.18 11.49 84.56 11.23L84.56 11.23L84.56 11.23Q84.94 10.96 85.22 10.43L85.22 10.43L85.22 10.43Q85.44 10.00 85.55 9.44L85.55 9.44L85.55 9.44Q85.67 8.88 85.63 8.30L85.63 8.30L85.63 8.30Q85.60 7.73 85.41 7.20L85.41 7.20L85.41 7.20Q85.22 6.68 84.84 6.30L84.84 6.30L84.84 6.30Q84.52 5.98 84.07 5.78L84.07 5.78L84.07 5.78Q83.62 5.59 83.13 5.59L83.13 5.59L81.56 5.59ZM93.88 10.72L93.88 10.72L93.88 10.72Q93.13 10.92 92.51 10.86L92.51 10.86L92.51 10.86Q91.88 10.81 91.48 10.56L91.48 10.56L91.48 10.56Q91.08 10.32 90.95 9.91L90.95 9.91L90.95 9.91Q90.82 9.49 91.03 8.97L91.03 8.97L91.03 8.97Q91.46 9.34 92.04 9.37L92.04 9.37L92.04 9.37Q92.61 9.41 93.14 9.35L93.14 9.35L93.14 9.35Q93.59 9.31 93.82 9.16L93.82 9.16L93.82 9.16Q94.05 9.00 94.11 8.80L94.11 8.80L94.11 8.80Q94.16 8.60 94.07 8.37L94.07 8.37L94.07 8.37Q93.97 8.15 93.75 7.97L93.75 7.97L93.75 7.97Q93.53 7.78 93.22 7.67L93.22 7.67L93.22 7.67Q92.90 7.56 92.53 7.57L92.53 7.57L92.53 7.57Q92.12 7.60 91.76 7.77L91.76 7.77L91.76 7.77Q91.39 7.94 91.11 8.23L91.11 8.23L91.11 8.23Q90.83 8.53 90.66 8.92L90.66 8.92L90.66 8.92Q90.50 9.31 90.48 9.79L90.48 9.79L90.48 9.79Q90.47 10.18 90.57 10.56L90.57 10.56L90.57 10.56Q90.68 10.93 90.89 11.25L90.89 11.25L90.89 11.25Q91.10 11.56 91.39 11.78L91.39 11.78L91.39 11.78Q91.69 12.00 92.06 12.05L92.06 12.05L92.06 12.05Q92.60 12.15 93.16 11.98L93.16 11.98L93.16 11.98Q93.72 11.82 94.15 11.37L94.15 11.37L95.62 12.08L95.62 12.08Q95.05 12.94 94.26 13.31L94.26 13.31L94.26 13.31Q93.48 13.68 92.47 13.68L92.47 13.68L92.47 13.68Q91.53 13.68 90.83 13.35L90.83 13.35L90.83 13.35Q90.12 13.02 89.65 12.47L89.65 12.47L89.65 12.47Q89.18 11.93 88.95 11.24L88.95 11.24L88.95 11.24Q88.72 10.54 88.73 9.82L88.73 9.82L88.73 9.82Q88.75 9.10 89.01 8.41L89.01 8.41L89.01 8.41Q89.28 7.71 89.78 7.18L89.78 7.18L89.78 7.18Q90.34 6.58 91.09 6.33L91.09 6.33L91.09 6.33Q91.84 6.08 92.62 6.08L92.62 6.08L92.62 6.08Q93.49 6.08 94.12 6.37L94.12 6.37L94.12 6.37Q94.75 6.66 95.14 7.12L95.14 7.12L95.14 7.12Q95.54 7.57 95.66 8.13L95.66 8.13L95.66 8.13Q95.79 8.68 95.64 9.20L95.64 9.20L95.64 9.20Q95.49 9.72 95.06 10.13L95.06 10.13L95.06 10.13Q94.63 10.54 93.88 10.72ZM100.52 8.50L100.52 8.50L100.52 8.50Q100.41 8.23 100.21 8.07L100.21 8.07L100.21 8.07Q100.02 7.91 99.79 7.83L99.79 7.83L99.79 7.83Q99.55 7.74 99.34 7.74L99.34 7.74L99.34 7.74Q99.12 7.73 98.98 7.78L98.98 7.78L98.98 7.78Q98.73 7.87 98.65 8.07L98.65 8.07L98.65 8.07Q98.57 8.27 98.73 8.46L98.73 8.46L98.73 8.46Q98.85 8.60 99.13 8.73L99.13 8.73L99.13 8.73Q99.40 8.86 99.74 9.02L99.74 9.02L99.74 9.02Q100.07 9.18 100.43 9.39L100.43 9.39L100.43 9.39Q100.79 9.59 101.08 9.87L101.08 9.87L101.08 9.87Q101.37 10.15 101.56 10.53L101.56 10.53L101.56 10.53Q101.75 10.91 101.75 11.42L101.75 11.42L101.75 11.42Q101.75 12.03 101.49 12.48L101.49 12.48L101.49 12.48Q101.22 12.94 100.78 13.22L100.78 13.22L100.78 13.22Q100.34 13.50 99.79 13.60L99.79 13.60L99.79 13.60Q99.23 13.71 98.67 13.62L98.67 13.62L98.67 13.62Q98.10 13.54 97.57 13.24L97.57 13.24L97.57 13.24Q97.03 12.94 96.64 12.42L96.64 12.42L97.76 11.21L97.76 11.21Q98.11 11.63 98.50 11.82L98.50 11.82L98.50 11.82Q98.88 12.00 99.21 12.02L99.21 12.02L99.21 12.02Q99.54 12.04 99.76 11.92L99.76 11.92L99.76 11.92Q99.99 11.80 100.04 11.60L100.04 11.60L100.04 11.60Q100.09 11.40 99.92 11.15L99.92 11.15L99.92 11.15Q99.75 10.91 99.27 10.67L99.27 10.67L99.27 10.67Q98.83 10.44 98.40 10.21L98.40 10.21L98.40 10.21Q97.97 9.97 97.64 9.67L97.64 9.67L97.64 9.67Q97.31 9.38 97.11 9.02L97.11 9.02L97.11 9.02Q96.91 8.65 96.91 8.16L96.91 8.16L96.91 8.16Q96.91 7.66 97.12 7.27L97.12 7.27L97.12 7.27Q97.33 6.87 97.68 6.61L97.68 6.61L97.68 6.61Q98.03 6.34 98.48 6.22L98.48 6.22L98.48 6.22Q98.92 6.09 99.40 6.10L99.40 6.10L99.40 6.10Q100.21 6.15 100.64 6.46L100.64 6.46L100.64 6.46Q101.07 6.78 101.17 7.18L101.17 7.18L101.17 7.18Q101.28 7.57 101.10 7.95L101.10 7.95L101.10 7.95Q100.93 8.33 100.52 8.50ZM106.47 8.50L106.47 8.50L106.47 8.50Q106.36 8.23 106.16 8.07L106.16 8.07L106.16 8.07Q105.97 7.91 105.74 7.83L105.74 7.83L105.74 7.83Q105.50 7.74 105.29 7.74L105.29 7.74L105.29 7.74Q105.07 7.73 104.93 7.78L104.93 7.78L104.93 7.78Q104.68 7.87 104.60 8.07L104.60 8.07L104.60 8.07Q104.52 8.27 104.68 8.46L104.68 8.46L104.68 8.46Q104.80 8.60 105.08 8.73L105.08 8.73L105.08 8.73Q105.35 8.86 105.69 9.02L105.69 9.02L105.69 9.02Q106.02 9.18 106.38 9.39L106.38 9.39L106.38 9.39Q106.74 9.59 107.03 9.87L107.03 9.87L107.03 9.87Q107.32 10.15 107.51 10.53L107.51 10.53L107.51 10.53Q107.70 10.91 107.70 11.42L107.70 11.42L107.70 11.42Q107.70 12.03 107.44 12.48L107.44 12.48L107.44 12.48Q107.17 12.94 106.73 13.22L106.73 13.22L106.73 13.22Q106.29 13.50 105.74 13.60L105.74 13.60L105.74 13.60Q105.18 13.71 104.62 13.62L104.62 13.62L104.62 13.62Q104.05 13.54 103.52 13.24L103.52 13.24L103.52 13.24Q102.98 12.94 102.59 12.42L102.59 12.42L103.71 11.21L103.71 11.21Q104.06 11.63 104.45 11.82L104.45 11.82L104.45 11.82Q104.83 12.00 105.16 12.02L105.16 12.02L105.16 12.02Q105.49 12.04 105.71 11.92L105.71 11.92L105.71 11.92Q105.94 11.80 105.99 11.60L105.99 11.60L105.99 11.60Q106.04 11.40 105.87 11.15L105.87 11.15L105.87 11.15Q105.70 10.91 105.22 10.67L105.22 10.67L105.22 10.67Q104.78 10.44 104.35 10.21L104.35 10.21L104.35 10.21Q103.92 9.97 103.59 9.67L103.59 9.67L103.59 9.67Q103.26 9.38 103.06 9.02L103.06 9.02L103.06 9.02Q102.86 8.65 102.86 8.16L102.86 8.16L102.86 8.16Q102.86 7.66 103.07 7.27L103.07 7.27L103.07 7.27Q103.28 6.87 103.63 6.61L103.63 6.61L103.63 6.61Q103.98 6.34 104.43 6.22L104.43 6.22L104.43 6.22Q104.87 6.09 105.35 6.10L105.35 6.10L105.35 6.10Q106.16 6.15 106.59 6.46L106.59 6.46L106.59 6.46Q107.02 6.78 107.12 7.18L107.12 7.18L107.12 7.18Q107.23 7.57 107.05 7.95L107.05 7.95L107.05 7.95Q106.88 8.33 106.47 8.50ZM113.76 10.72L113.76 10.72L113.76 10.72Q113.01 10.92 112.39 10.86L112.39 10.86L112.39 10.86Q111.76 10.81 111.36 10.56L111.36 10.56L111.36 10.56Q110.96 10.32 110.83 9.91L110.83 9.91L110.83 9.91Q110.70 9.49 110.91 8.97L110.91 8.97L110.91 8.97Q111.34 9.34 111.92 9.37L111.92 9.37L111.92 9.37Q112.49 9.41 113.02 9.35L113.02 9.35L113.02 9.35Q113.47 9.31 113.70 9.16L113.70 9.16L113.70 9.16Q113.93 9.00 113.99 8.80L113.99 8.80L113.99 8.80Q114.04 8.60 113.95 8.37L113.95 8.37L113.95 8.37Q113.85 8.15 113.63 7.97L113.63 7.97L113.63 7.97Q113.41 7.78 113.10 7.67L113.10 7.67L113.10 7.67Q112.78 7.56 112.41 7.57L112.41 7.57L112.41 7.57Q112.00 7.60 111.64 7.77L111.64 7.77L111.64 7.77Q111.27 7.94 110.99 8.23L110.99 8.23L110.99 8.23Q110.71 8.53 110.54 8.92L110.54 8.92L110.54 8.92Q110.38 9.31 110.36 9.79L110.36 9.79L110.36 9.79Q110.35 10.18 110.45 10.56L110.45 10.56L110.45 10.56Q110.56 10.93 110.77 11.25L110.77 11.25L110.77 11.25Q110.98 11.56 111.27 11.78L111.27 11.78L111.27 11.78Q111.57 12.00 111.94 12.05L111.94 12.05L111.94 12.05Q112.48 12.15 113.04 11.98L113.04 11.98L113.04 11.98Q113.60 11.82 114.03 11.37L114.03 11.37L115.50 12.08L115.50 12.08Q114.93 12.94 114.14 13.31L114.14 13.31L114.14 13.31Q113.36 13.68 112.35 13.68L112.35 13.68L112.35 13.68Q111.41 13.68 110.71 13.35L110.71 13.35L110.71 13.35Q110.00 13.02 109.53 12.47L109.53 12.47L109.53 12.47Q109.06 11.93 108.83 11.24L108.83 11.24L108.83 11.24Q108.60 10.54 108.61 9.82L108.61 9.82L108.61 9.82Q108.63 9.10 108.89 8.41L108.89 8.41L108.89 8.41Q109.16 7.71 109.66 7.18L109.66 7.18L109.66 7.18Q110.22 6.58 110.97 6.33L110.97 6.33L110.97 6.33Q111.72 6.08 112.50 6.08L112.50 6.08L112.50 6.08Q113.37 6.08 114.00 6.37L114.00 6.37L114.00 6.37Q114.63 6.66 115.02 7.12L115.02 7.12L115.02 7.12Q115.42 7.57 115.54 8.13L115.54 8.13L115.54 8.13Q115.67 8.68 115.52 9.20L115.52 9.20L115.52 9.20Q115.37 9.72 114.94 10.13L114.94 10.13L114.94 10.13Q114.51 10.54 113.76 10.72ZM116.80 13.52L116.80 6.24L118.37 6.24L118.37 7.17L118.37 7.17Q118.61 6.68 118.98 6.39L118.98 6.39L118.98 6.39Q119.35 6.10 119.80 6.08L119.80 6.08L119.80 6.08Q120.39 6.03 120.75 6.29L120.75 6.29L120.75 6.29Q121.11 6.55 121.26 6.92L121.26 6.92L121.26 6.92Q121.41 7.29 121.34 7.68L121.34 7.68L121.34 7.68Q121.27 8.06 120.96 8.29L120.96 8.29L120.96 8.29Q120.83 7.94 120.48 7.83L120.48 7.83L120.48 7.83Q120.12 7.73 119.73 7.86L119.73 7.86L119.73 7.86Q119.34 7.99 119.02 8.36L119.02 8.36L119.02 8.36Q118.71 8.72 118.65 9.31L118.65 9.31L118.65 9.31Q118.62 9.65 118.62 9.98L118.62 9.98L118.62 9.98Q118.62 10.30 118.62 10.58L118.62 10.58L118.62 13.52L116.80 13.52ZM123.23 6.33L123.23 5.15L123.23 5.15Q123.23 4.76 123.38 4.49L123.38 4.49L123.38 4.49Q123.52 4.21 123.77 4.05L123.77 4.05L123.77 4.05Q124.01 3.88 124.33 3.80L124.33 3.80L124.33 3.80Q124.66 3.72 124.99 3.72L124.99 3.72L124.99 6.33L126.62 6.33L126.62 6.33Q126.62 6.61 126.57 6.87L126.57 6.87L126.57 6.87Q126.52 7.14 126.38 7.36L126.38 7.36L126.38 7.36Q126.24 7.57 126.00 7.71L126.00 7.71L126.00 7.71Q125.76 7.84 125.38 7.84L125.38 7.84L124.99 7.84L124.99 11.80L124.99 11.80Q124.99 12.03 125.16 12.12L125.16 12.12L125.16 12.12Q125.33 12.21 125.55 12.20L125.55 12.20L125.55 12.20Q125.78 12.19 126.00 12.10L126.00 12.10L126.00 12.10Q126.22 12.00 126.32 11.83L126.32 11.83L126.32 11.83Q126.50 12.29 126.34 12.65L126.34 12.65L126.34 12.65Q126.18 13.01 125.84 13.22L125.84 13.22L125.84 13.22Q125.50 13.44 125.04 13.50L125.04 13.50L125.04 13.50Q124.59 13.57 124.19 13.43L124.19 13.43L124.19 13.43Q123.79 13.30 123.51 12.96L123.51 12.96L123.51 12.96Q123.23 12.61 123.23 12.03L123.23 12.03L123.23 7.84L122.33 7.84L122.33 6.33L123.23 6.33ZM131.33 8.50L131.33 8.50L131.33 8.50Q131.22 8.23 131.03 8.07L131.03 8.07L131.03 8.07Q130.83 7.91 130.60 7.83L130.60 7.83L130.60 7.83Q130.37 7.74 130.15 7.74L130.15 7.74L130.15 7.74Q129.93 7.73 129.79 7.78L129.79 7.78L129.79 7.78Q129.54 7.87 129.47 8.07L129.47 8.07L129.47 8.07Q129.39 8.27 129.54 8.46L129.54 8.46L129.54 8.46Q129.67 8.60 129.94 8.73L129.94 8.73L129.94 8.73Q130.21 8.86 130.55 9.02L130.55 9.02L130.55 9.02Q130.89 9.18 131.24 9.39L131.24 9.39L131.24 9.39Q131.60 9.59 131.89 9.87L131.89 9.87L131.89 9.87Q132.19 10.15 132.38 10.53L132.38 10.53L132.38 10.53Q132.57 10.91 132.57 11.42L132.57 11.42L132.57 11.42Q132.57 12.03 132.30 12.48L132.30 12.48L132.30 12.48Q132.03 12.94 131.59 13.22L131.59 13.22L131.59 13.22Q131.15 13.50 130.60 13.60L130.60 13.60L130.60 13.60Q130.05 13.71 129.48 13.62L129.48 13.62L129.48 13.62Q128.91 13.54 128.38 13.24L128.38 13.24L128.38 13.24Q127.85 12.94 127.46 12.42L127.46 12.42L128.58 11.21L128.58 11.21Q128.93 11.63 129.31 11.82L129.31 11.82L129.31 11.82Q129.70 12.00 130.03 12.02L130.03 12.02L130.03 12.02Q130.35 12.04 130.58 11.92L130.58 11.92L130.58 11.92Q130.80 11.80 130.85 11.60L130.85 11.60L130.85 11.60Q130.90 11.40 130.73 11.15L130.73 11.15L130.73 11.15Q130.56 10.91 130.09 10.67L130.09 10.67L130.09 10.67Q129.64 10.44 129.21 10.21L129.21 10.21L129.21 10.21Q128.79 9.97 128.46 9.67L128.46 9.67L128.46 9.67Q128.13 9.38 127.93 9.02L127.93 9.02L127.93 9.02Q127.72 8.65 127.72 8.16L127.72 8.16L127.72 8.16Q127.72 7.66 127.93 7.27L127.93 7.27L127.93 7.27Q128.14 6.87 128.49 6.61L128.49 6.61L128.49 6.61Q128.84 6.34 129.29 6.22L129.29 6.22L129.29 6.22Q129.74 6.09 130.21 6.10L130.21 6.10L130.21 6.10Q131.03 6.15 131.45 6.46L131.45 6.46L131.45 6.46Q131.88 6.78 131.99 7.18L131.99 7.18L131.99 7.18Q132.09 7.57 131.92 7.95L131.92 7.95L131.92 7.95Q131.74 8.33 131.33 8.50Z"></path></g><!----><!----></svg>